<svg xmlns="http://www.w3.org/2000/svg" width="720" height="640" viewBox="0 0 720 640" role="img"><title>Sensory nerves of the hand</title><desc>Right hand. Median (teal), ulnar (gold) and radial (blue) territories. Original simplified teaching diagram; not to scale.</desc><defs><linearGradient id="bg" x1="0" y1="0" x2="0" y2="1"><stop offset="0" stop-color="#f9f9f4"/><stop offset="1" stop-color="#eef1e8"/></linearGradient><linearGradient id="card" x1="0" y1="0" x2="0" y2="1"><stop offset="0" stop-color="#ffffff"/><stop offset="1" stop-color="#f9faf6"/></linearGradient><pattern id="dots" width="18" height="18" patternUnits="userSpaceOnUse"><circle cx="2" cy="2" r=".9" fill="#d3dbcf"/></pattern><filter id="shadow" x="-10%" y="-10%" width="120%" height="130%"><feDropShadow dx="0" dy="2" stdDeviation="3" flood-color="#173e39" flood-opacity=".09"/></filter><filter id="lift" x="-40%" y="-40%" width="180%" height="190%"><feDropShadow dx="0" dy="1.2" stdDeviation="1.4" flood-color="#173e39" flood-opacity=".22"/></filter><clipPath id="clip1"><rect x="110" y="250" width="132" height="150" rx="22"/></clipPath><clipPath id="clip2"><rect x="178" y="138" width="28" height="126" rx="13"/></clipPath><clipPath id="clip3"><rect x="470" y="250" width="132" height="150" rx="22"/></clipPath><clipPath id="clip4"><rect x="570" y="140" width="28" height="124" rx="13"/></clipPath><clipPath id="clip5"><rect x="538" y="128" width="28" height="136" rx="13"/></clipPath><clipPath id="clip6"><rect x="506" y="138" width="28" height="126" rx="13"/></clipPath></defs><rect width="720" height="640" rx="18" fill="url(#bg)"/><rect width="720" height="640" rx="18" fill="url(#dots)" opacity=".55"/><rect x=".5" y=".5" width="719" height="639" rx="17.5" fill="none" stroke="#dfe5da"/><g font-family="Arial,Helvetica,sans-serif"><text x="28" y="40" font-size="26" fill="#173e39" font-family="Georgia,'Times New Roman',serif" letter-spacing="-.4">Sensory nerves of the hand</text><text x="28" y="68" font-size="15" fill="#64736c" text-anchor="start">Right hand. Median (teal), ulnar (gold) and radial (blue) territories.</text><text x="176" y="106" font-size="13" fill="#64736c" text-anchor="middle" font-weight="700" letter-spacing=".6">PALM</text><g clip-path="url(#clip1)"><rect x="110" y="250" width="82" height="150" fill="#a9d1c9"/><rect x="192" y="250" width="50" height="150" fill="#e6cfa6"/></g><rect fill="#a9d1c9" x="80" y="280" width="30" height="88" rx="14" transform="rotate(-28 95 362)"/><rect x="114" y="140" width="28" height="124" rx="13" fill="#a9d1c9"/><rect x="146" y="128" width="28" height="136" rx="13" fill="#a9d1c9"/><g clip-path="url(#clip2)"><rect x="178" y="138" width="14" height="126" fill="#a9d1c9"/><rect x="192" y="138" width="14" height="126" fill="#e6cfa6"/></g><rect x="210" y="158" width="28" height="106" rx="13" fill="#e6cfa6"/><g fill="none" stroke="#173e39" stroke-width="2"><rect x="114" y="140" width="28" height="124" rx="13"/><rect x="146" y="128" width="28" height="136" rx="13"/><rect x="178" y="138" width="28" height="126" rx="13"/><rect x="210" y="158" width="28" height="106" rx="13"/><rect x="110" y="250" width="132" height="150" rx="22"/><rect x="80" y="280" width="30" height="88" rx="14" transform="rotate(-28 95 362)"/></g><g fill="none" stroke="#173e39" stroke-opacity=".4" stroke-width="1.3" stroke-linecap="round"><path d="M120 182.2Q128.0 185.2 136 182.2"/><path d="M120 219.4Q128.0 222.4 136 219.4"/><path d="M152 174.2Q160.0 177.2 168 174.2"/><path d="M152 215.0Q160.0 218.0 168 215.0"/><path d="M184 180.8Q192.0 183.8 200 180.8"/><path d="M184 218.6Q192.0 221.6 200 218.6"/><path d="M216 194.0Q224.0 197.0 232 194.0"/><path d="M216 225.8Q224.0 228.8 232 225.8"/><path d="M124 296Q180 280 232 292"/><path d="M120 320Q170 306 210 326"/><path d="M140 290Q132 350 156 392"/></g><text x="176" y="432" font-size="12" fill="#64736c" text-anchor="middle">thumb ←</text><text x="536" y="106" font-size="13" fill="#64736c" text-anchor="middle" font-weight="700" letter-spacing=".6">BACK OF HAND</text><g clip-path="url(#clip3)"><rect x="520" y="250" width="82" height="150" fill="#b4c8db"/><rect x="470" y="250" width="50" height="150" fill="#e6cfa6"/></g><rect fill="#b4c8db" x="602" y="280" width="30" height="88" rx="14" transform="rotate(28 617 362)"/><rect x="570" y="140" width="28" height="124" rx="13" fill="#b4c8db"/><rect x="570" y="140" width="28" height="38" fill="#a9d1c9" clip-path="url(#clip4)"/><rect x="538" y="128" width="28" height="136" rx="13" fill="#b4c8db"/><rect x="538" y="128" width="28" height="38" fill="#a9d1c9" clip-path="url(#clip5)"/><g clip-path="url(#clip6)"><rect x="520" y="138" width="14" height="126" fill="#b4c8db"/><rect x="520" y="138" width="14" height="38" fill="#a9d1c9"/><rect x="506" y="138" width="14" height="126" fill="#e6cfa6"/></g><rect x="474" y="158" width="28" height="106" rx="13" fill="#e6cfa6"/><g fill="none" stroke="#173e39" stroke-width="2"><rect x="570" y="140" width="28" height="124" rx="13"/><rect x="538" y="128" width="28" height="136" rx="13"/><rect x="506" y="138" width="28" height="126" rx="13"/><rect x="474" y="158" width="28" height="106" rx="13"/><rect x="470" y="250" width="132" height="150" rx="22"/><rect x="602" y="280" width="30" height="88" rx="14" transform="rotate(28 617 362)"/></g><g fill="none" stroke="#173e39" stroke-opacity=".4" stroke-width="1.3" stroke-linecap="round"><rect x="576" y="146" width="16" height="17" rx="6" fill="#ffffff" fill-opacity=".55"/><path d="M578 214.4Q584.0 210.4 590 214.4"/><rect x="544" y="134" width="16" height="17" rx="6" fill="#ffffff" fill-opacity=".55"/><path d="M546 209.6Q552.0 205.6 558 209.6"/><rect x="512" y="144" width="16" height="17" rx="6" fill="#ffffff" fill-opacity=".55"/><path d="M514 213.6Q520.0 209.6 526 213.6"/><rect x="480" y="164" width="16" height="17" rx="6" fill="#ffffff" fill-opacity=".55"/><path d="M482 221.6Q488.0 217.6 494 221.6"/></g><text x="536" y="432" font-size="12" fill="#64736c" text-anchor="middle">thumb →</text><rect x="40" y="462" width="22" height="22" rx="5" fill="#a9d1c9" stroke="#278278" stroke-width="1.5"/><text x="74" y="478" font-size="15" fill="#173e39" text-anchor="start">Median</text><text x="150" y="478" font-size="13" fill="#64736c" text-anchor="start">palm side of thumb to radial ring finger; dorsal fingertips</text><rect x="40" y="496" width="22" height="22" rx="5" fill="#e6cfa6" stroke="#b17b30" stroke-width="1.5"/><text x="74" y="512" font-size="15" fill="#173e39" text-anchor="start">Ulnar</text><text x="150" y="512" font-size="13" fill="#64736c" text-anchor="start">little finger and ulnar half of ring finger, both sides</text><rect x="40" y="530" width="22" height="22" rx="5" fill="#b4c8db" stroke="#527da2" stroke-width="1.5"/><text x="74" y="546" font-size="15" fill="#173e39" text-anchor="start">Radial</text><text x="150" y="546" font-size="13" fill="#64736c" text-anchor="start">back of the radial hand, especially the first web space</text><text x="40" y="586" font-size="13" fill="#b17b30" text-anchor="start">A split ring finger points to a nerve, not a C8 root. Borders vary.</text><path d="M28 604L692 604" fill="none" stroke="#d6dfd3" stroke-width="1"/><text x="28" y="627" font-size="11" fill="#64736c" letter-spacing="1.2">NEUROLOCALIZE  ·  ORIGINAL SCHEMATIC  ·  NOT TO SCALE</text><text x="692" y="627" font-size="11" fill="#278278" text-anchor="end" letter-spacing="1.2" font-weight="700">FIG. 32</text></g></svg>