<svg xmlns="http://www.w3.org/2000/svg" width="720" height="560" viewBox="0 0 720 560" role="img"><title>A hemifield travels to the opposite brain</title><desc>LEFT visual field example · simplified top-down pathway map.. Original simplified teaching diagram; not to scale.</desc><defs><radialGradient id="tissue" cx=".4" cy=".35" r=".75"><stop offset="0" stop-color="#f7f9f4"/><stop offset="1" stop-color="#d9e4d4"/></radialGradient><linearGradient id="bg" x1="0" y1="0" x2="0" y2="1"><stop offset="0" stop-color="#f9f9f4"/><stop offset="1" stop-color="#eef1e8"/></linearGradient><linearGradient id="card" x1="0" y1="0" x2="0" y2="1"><stop offset="0" stop-color="#ffffff"/><stop offset="1" stop-color="#f9faf6"/></linearGradient><pattern id="dots" width="18" height="18" patternUnits="userSpaceOnUse"><circle cx="2" cy="2" r=".9" fill="#d3dbcf"/></pattern><filter id="shadow" x="-10%" y="-10%" width="120%" height="130%"><feDropShadow dx="0" dy="2" stdDeviation="3" flood-color="#173e39" flood-opacity=".09"/></filter><filter id="lift" x="-40%" y="-40%" width="180%" height="190%"><feDropShadow dx="0" dy="1.2" stdDeviation="1.4" flood-color="#173e39" flood-opacity=".22"/></filter><linearGradient id="g173e39" x1="0" y1="0" x2="0" y2="1"><stop offset="0" stop-color="#4a6865"/><stop offset="1" stop-color="#173e39"/></linearGradient><linearGradient id="g278278" x1="0" y1="0" x2="0" y2="1"><stop offset="0" stop-color="#579e96"/><stop offset="1" stop-color="#257a70"/></linearGradient><linearGradient id="g527da2" x1="0" y1="0" x2="0" y2="1"><stop offset="0" stop-color="#789ab6"/><stop offset="1" stop-color="#4b7595"/></linearGradient><linearGradient id="ga34040" x1="0" y1="0" x2="0" y2="1"><stop offset="0" stop-color="#b76a6a"/><stop offset="1" stop-color="#92403f"/></linearGradient><linearGradient id="gb17b30" x1="0" y1="0" x2="0" y2="1"><stop offset="0" stop-color="#c2985e"/><stop offset="1" stop-color="#9f7431"/></linearGradient><marker id="arrow" markerUnits="userSpaceOnUse" markerWidth="16" markerHeight="16" refX="11" refY="8" orient="auto"><path d="M2 2.5L13 8L2 13.5L5 8Z" fill="#278278"/></marker></defs><rect width="720" height="560" rx="18" fill="url(#bg)"/><rect width="720" height="560" rx="18" fill="url(#dots)" opacity=".55"/><rect x=".5" y=".5" width="719" height="559" rx="17.5" fill="none" stroke="#dfe5da"/><g font-family="Arial,Helvetica,sans-serif"><text x="28" y="40" font-size="26" fill="#173e39" font-family="Georgia,'Times New Roman',serif" letter-spacing="-.4">A hemifield travels to the opposite brain</text><text x="28" y="68" font-size="15" fill="#64736c" text-anchor="start">LEFT visual field example · simplified top-down pathway map.</text><text x="97" y="104" font-size="15" fill="#64736c" text-anchor="start">LEFT EYE</text><text x="502" y="104" font-size="15" fill="#64736c" text-anchor="start">RIGHT EYE</text><ellipse cx="151" cy="155" rx="49" ry="34" fill="#fff" stroke="#173e39" stroke-width="2"/><ellipse cx="551" cy="155" rx="49" ry="34" fill="#fff" stroke="#173e39" stroke-width="2"/><circle cx="176" cy="160" r="7" fill="url(#gb17b30)" filter="url(#lift)"/><circle cx="574" cy="160" r="7" fill="url(#gb17b30)" filter="url(#lift)"/><path d="M176 169L304 261L463 344" fill="none" stroke="#b17b30" stroke-width="12" stroke-opacity=".13" stroke-linecap="round" stroke-linejoin="round"/><path d="M176 169L304 261L463 344" fill="none" stroke="#b17b30" stroke-width="5" stroke-linecap="round" stroke-linejoin="round"/><path d="M574 169L463 344" fill="none" stroke="#b17b30" stroke-width="12" stroke-opacity=".13" stroke-linecap="round" stroke-linejoin="round"/><path d="M574 169L463 344" fill="none" stroke="#b17b30" stroke-width="5" stroke-linecap="round" stroke-linejoin="round"/><path d="M126 169L228 344" fill="none" stroke="#527da2" stroke-width="10" stroke-opacity=".13" stroke-linecap="round" stroke-linejoin="round"/><path d="M126 169L228 344" fill="none" stroke="#527da2" stroke-width="3" stroke-linecap="round" stroke-linejoin="round"/><path d="M527 169L399 261L228 344" fill="none" stroke="#527da2" stroke-width="10" stroke-opacity=".13" stroke-linecap="round" stroke-linejoin="round"/><path d="M527 169L399 261L228 344" fill="none" stroke="#527da2" stroke-width="3" stroke-linecap="round" stroke-linejoin="round"/><rect x="134" y="349" width="183" height="65" rx="13" fill="url(#card)" stroke="#527da2" stroke-width="2" filter="url(#shadow)"/><text x="150" y="379" font-size="20" fill="#527da2" text-anchor="start">Left LGN</text><rect x="378" y="349" width="183" height="65" rx="13" fill="url(#card)" stroke="#b17b30" stroke-width="2" filter="url(#shadow)"/><text x="394" y="379" font-size="20" fill="#b17b30" text-anchor="start">Right LGN</text><path d="M229 414L229 453" fill="none" stroke="#527da2" stroke-width="10" stroke-opacity=".13" /><path d="M229 414L229 453" fill="none" stroke="#527da2" stroke-width="3" /><path d="M468 414L468 453" fill="none" stroke="#b17b30" stroke-width="11" stroke-opacity=".13" /><path d="M468 414L468 453" fill="none" stroke="#b17b30" stroke-width="4" /><rect x="121" y="456" width="208" height="52" rx="13" fill="url(#card)" stroke="#527da2" stroke-width="2" filter="url(#shadow)"/><text x="137" y="486" font-size="20" fill="#527da2" text-anchor="start">Left visual cortex</text><rect x="363" y="456" width="214" height="52" rx="13" fill="url(#card)" stroke="#b17b30" stroke-width="2" filter="url(#shadow)"/><text x="379" y="486" font-size="20" fill="#b17b30" text-anchor="start">Right visual cortex</text><text x="38" y="280" font-size="17" fill="#64736c" text-anchor="start">Nasal retinal</text><text x="38" y="305" font-size="17" fill="#64736c" text-anchor="start">fibers cross.</text><text x="570" y="273" font-size="15" fill="#64736c" text-anchor="start">Temporal fibers</text><text x="570" y="298" font-size="15" fill="#64736c" text-anchor="start">stay on the</text><text x="570" y="323" font-size="15" fill="#64736c" text-anchor="start">same side.</text><text x="298" y="225" font-size="14" fill="#64736c" text-anchor="start">CHIASM</text><text x="269" y="432" font-size="14" fill="#64736c" text-anchor="start">LGN = thalamic relay</text><path d="M28 524L692 524" fill="none" stroke="#d6dfd3" stroke-width="1" /><text x="28" y="547" font-size="11" fill="#64736c" letter-spacing="1.2">NEUROLOCALIZE  ·  ORIGINAL SCHEMATIC  ·  NOT TO SCALE</text><text x="692" y="547" font-size="11" fill="#278278" text-anchor="end" letter-spacing="1.2" font-weight="700">FIG. 11</text></g></svg>